<?xml version="1.0" encoding="UTF-8"?>
<svg id="Logo" xmlns="http://www.w3.org/2000/svg" viewBox="0 0 356.51 59.67">
  <defs>
    <style>
      .cls-1 {
        fill: #fff;
        stroke-width: .5px;
      }

      .cls-1, .cls-2 {
        stroke: #021e1d;
        stroke-miterlimit: 10;
      }

      .cls-3 {
        fill: #e16262;
      }

      .cls-4 {
        fill: #f9bc60;
      }

      .cls-2 {
        fill: none;
        stroke-width: 2px;
      }
    </style>
  </defs>
  <g id="Logo_Kleur">
    <g id="A">
      <path id="Yellow" class="cls-4" d="M49.75,18.73l-3.46-.24c-1.59.02-1.98.21-3.28-.08l.76-1.28c.82-2.37,1.04-2.53,1.13-2.72l2.66-3.07c2.02-1.98,3.7-2.99,6.41-2.99l-4.23,10.38"/>
      <path id="Red" class="cls-3" d="M30.68,25.18l-10.28,17.18c-2.37,2.55-2.93,2.64-5.97,3l-1.41-.45c-2.21-.68-4.25-2.52-4.25-4.82l.38-3.93,1.37-2.89,2.61-3.2c3.43-3.09,7.64-4.88,12.25-4.88h5.29Z"/>
      <path id="A-2" data-name="A" class="cls-2" d="M47.12,25.18h-7.85l-9.38,16.24c-4.42,7.69-9.67,11.54-15.73,11.54-3.72,0-6.85-1.34-9.37-4.01s-3.78-5.99-3.78-9.94c0-3.21.97-6.31,2.92-9.28s4.6-5.45,7.97-7.41c2.51-1.44,5.3-2.45,8.36-3.03,3.06-.59,7.13-.88,12.22-.88h2.1l2.24-4.11c3.12-5.73,6.93-9.54,11.42-11.45,2.89-1.23,6.67-1.84,11.34-1.84,1.19,0,2.13.26,2.81.79s1.02,1.27,1.02,2.21c0,.43-.11.94-.34,1.53l-.26.65-4.88,12.22h2.89c2.12,0,3.17.92,3.17,2.75,0,1.11-.43,2.06-1.3,2.85s-1.93,1.18-3.17,1.18h-4.34l-3.15,7.74h5.36c2.12,0,3.17.91,3.17,2.72,0,1.13-.43,2.09-1.3,2.88s-1.93,1.18-3.17,1.18h-6.83c-1.63,0-2.95-.42-3.98-1.26s-1.54-1.93-1.54-3.27c0-1.04.39-2.51,1.16-4.42l2.24-5.56ZM30.68,25.18h-2.41c-5.4,0-9.69,1-12.87,3-2.02,1.29-3.63,2.89-4.83,4.82-1.2,1.93-1.8,3.87-1.8,5.84,0,1.8.58,3.33,1.73,4.61s2.55,1.91,4.2,1.91c2.85,0,5.38-1.89,7.57-5.67l8.42-14.51ZM49.9,18.4l4.08-10.06c-2,.13-3.69.77-5.06,1.91-1.37,1.14-2.93,3.22-4.69,6.22l-1.16,1.93h6.83Z"/>
    </g>
    <g id="S">
      <path id="Red-2" data-name="Red" class="cls-3" d="M77.22,26c.32-.57,1.06-1.67,2.43-2.46,1.58-.91,3.05-.85,3.76-.82,1.45.06,1.79.52,1.88.65.24.37.21.83.2.96-.03.58-.41.91-.53,1.06,0,0-.95.73-2,.74s-5.83,0-5.83,0l.09-.12Z"/>
      <path id="Yellow-2" data-name="Yellow" class="cls-4" d="M71.36,40.18c-.81.33-2.11.98-3.26,2.28-.72.81-2.02,2.28-1.97,4.43.05,1.89,1.1,3.17,1.39,3.49,1.7,1.93,4.11,1.94,4.65,1.92,2.16-.06,3.58-1.26,4.16-1.74.53-.45,1.79-1.53,2.33-3.44.07-.24.65-2.41-.36-4.56-.28-.59-.59-1.01-1.21-1.83-.52-.69-.86-1.04-1.97-2.28-.39-.43-.98-1.09-1.7-1.92"/>
      <path id="S-2" data-name="S" class="cls-2" d="M78.89,32.37l2.09,2.64,1.21,1.46c3.55,4.38,4.4,9.15,2.56,14.3-2.99,5.27-7.39,7.91-13.23,7.91-3.53,0-6.43-1.09-8.69-3.26-2.26-2.18-3.39-4.96-3.39-8.36,0-4.16,1.76-7.62,5.28-10.4,1.87-1.47,3.59-2.21,5.16-2.21.82,0,1.49.24,2,.71s.77,1.08.77,1.82c0,1-.59,1.87-1.77,2.59l-1.82,1.11c-1.05.65-1.92,1.56-2.62,2.73s-1.05,2.32-1.05,3.46c0,1.8.61,3.3,1.83,4.47s2.77,1.76,4.65,1.76c2.08,0,3.88-.78,5.41-2.33s2.3-3.39,2.3-5.49c0-1.33-.31-2.55-.93-3.64s-1.96-2.78-4.03-5.07c-1.44-1.59-2.47-2.99-3.09-4.19l-6.09-.31c-2.03-.29-5.66-.3-6.79-1.66-.67-.8-.4-1.92.2-2.61s6.27-.85,7.61-.85h3.89c.3-3,1.68-5.49,4.12-7.45s5.37-2.95,8.78-2.95c2.56,0,4.65.71,6.27,2.12,1.62,1.41,2.42,3.24,2.42,5.48,0,2.99-1.28,5.28-3.85,6.87-1.46.91-3.77,1.37-6.94,1.37h-2.28ZM76.16,26.93h5.46c3.08,0,4.62-.89,4.62-2.68,0-.7-.31-1.26-.94-1.68s-1.47-.64-2.51-.64c-1.64,0-3.13.51-4.47,1.52s-2.06,2.18-2.15,3.48Z"/>
    </g>
  </g>
  <g id="Logo_Basic">
    <path id="A-3" data-name="A" class="cls-1" d="M342.74,30.1h-2.44l-2.91,5.04c-1.37,2.39-3,3.58-4.89,3.58-1.16,0-2.13-.42-2.91-1.25s-1.18-1.86-1.18-3.09c0-1,.3-1.96.91-2.88s1.43-1.69,2.47-2.3c.78-.45,1.65-.76,2.6-.94s2.22-.27,3.79-.27h.65l.7-1.28c.97-1.78,2.15-2.96,3.55-3.56.9-.38,2.07-.57,3.52-.57.37,0,.66.08.87.25s.32.39.32.69c0,.13-.04.29-.11.48l-.08.2-1.51,3.79h.9c.66,0,.99.28.99.85,0,.35-.13.64-.4.88s-.6.37-.99.37h-1.35l-.98,2.4h1.66c.66,0,.99.28.99.85,0,.35-.13.65-.4.89s-.6.37-.99.37h-2.12c-.5,0-.92-.13-1.24-.39s-.48-.6-.48-1.02c0-.32.12-.78.36-1.37l.7-1.73ZM337.64,30.1h-.75c-1.68,0-3.01.31-4,.93-.63.4-1.13.9-1.5,1.5s-.56,1.2-.56,1.81c0,.56.18,1.03.54,1.43s.79.59,1.3.59c.89,0,1.67-.59,2.35-1.76l2.61-4.51ZM343.61,27.99l1.27-3.13c-.62.04-1.15.24-1.57.59s-.91,1-1.46,1.93l-.36.6h2.12Z"/>
    <path id="S-3" data-name="S" class="cls-1" d="M352.2,32.3l.65.82.37.45c.83,1.02,1.18,2.11,1.07,3.26-.08.78-.42,1.53-.94,2.13-.88,1-2.02,1.51-3.44,1.51-1.1,0-2-.34-2.7-1.01s-1.05-1.54-1.05-2.6c0-1.29.55-2.37,1.64-3.23.58-.46,1.11-.69,1.6-.69.25,0,.46.07.62.22s.24.33.24.57c0,.31-.18.58-.55.81l-.57.35c-.33.2-.6.49-.81.85s-.33.72-.33,1.07c0,.56.19,1.02.57,1.39s.86.55,1.45.55c.65,0,1.21-.24,1.68-.72s.71-1.05.71-1.71c0-.41-.1-.79-.29-1.13s-.61-.86-1.25-1.58c-.45-.49-.77-.93-.96-1.3l-1.89-.1c-.63-.09-1.76-.09-2.11-.52-.21-.25-.12-.6.06-.81s1.95-.27,2.36-.27h1.21c.09-.93.52-1.7,1.28-2.31s1.67-.92,2.73-.92c.8,0,1.45.22,1.95.66s.75,1.01.75,1.7c0,.93-.4,1.64-1.19,2.13-.45.28-1.17.42-2.16.42h-.71ZM351.35,30.61h1.7c.96,0,1.43-.28,1.43-.83,0-.22-.1-.39-.29-.52s-.46-.2-.78-.2c-.51,0-.97.16-1.39.47s-.64.68-.67,1.08Z"/>
  </g>
</svg>